<?xml version="1.0" encoding="utf-8"?>
<!-- Generator: Adobe Illustrator 27.8.1, SVG Export Plug-In . SVG Version: 6.00 Build 0)  -->
<svg version="1.1" id="Layer_1" xmlns="http://www.w3.org/2000/svg" xmlns:xlink="http://www.w3.org/1999/xlink" x="0px" y="0px"
	 viewBox="0 0 257 64" style="enable-background:new 0 0 257 64;" xml:space="preserve">
<style type="text/css">
	.st0{fill:#FFFFFF;}
	.st1{fill:#04DA8D;}
	.st2{fill:#005128;}
</style>
<g>
	<g>
		<path class="st0" d="M67.5,22.4h26v4.9H83.3v27.3h-5.6V27.2H67.5L67.5,22.4L67.5,22.4z M92.4,31.2h4.8v4.5h0.1
			c0.2-0.6,0.5-1.2,0.9-1.8c0.4-0.6,1-1.2,1.6-1.6c0.6-0.5,1.3-0.9,2-1.2c0.7-0.3,1.5-0.5,2.3-0.5c0.6,0,1,0,1.2,0
			c0.2,0,0.5,0.1,0.7,0.1v4.9c-0.4-0.1-0.7-0.1-1.1-0.2c-0.4,0-0.7-0.1-1.1-0.1c-0.9,0-1.7,0.2-2.4,0.5c-0.8,0.3-1.4,0.9-2,1.5
			c-0.6,0.7-1,1.5-1.4,2.5c-0.3,1-0.5,2.1-0.5,3.4v11.1h-5.1L92.4,31.2L92.4,31.2z M129.6,54.5h-5v-3.2h-0.1
			c-0.6,1.2-1.6,2.1-2.8,2.8c-1.2,0.7-2.5,1.1-3.8,1.1c-3.1,0-5.3-0.7-6.6-2.3c-1.4-1.5-2-3.8-2-6.9V31.2h5.1v14.3
			c0,2,0.4,3.5,1.2,4.3c0.8,0.8,1.9,1.3,3.3,1.3c1.1,0,2-0.2,2.7-0.5c0.7-0.3,1.3-0.8,1.7-1.3c0.5-0.5,0.8-1.2,1-2
			c0.2-0.8,0.3-1.6,0.3-2.5V31.3h5.1V54.5z M138.4,47c0.2,1.5,0.7,2.5,1.7,3.2c1,0.6,2.2,0.9,3.6,0.9c0.5,0,1,0,1.6-0.1
			c0.6-0.1,1.2-0.2,1.7-0.4c0.5-0.2,1-0.5,1.3-0.9c0.3-0.4,0.5-0.9,0.5-1.6c0-0.7-0.3-1.2-0.7-1.6c-0.5-0.4-1-0.7-1.7-1
			c-0.7-0.2-1.5-0.5-2.4-0.7c-0.9-0.2-1.8-0.4-2.7-0.6c-1-0.2-1.9-0.5-2.8-0.8c-0.9-0.3-1.7-0.7-2.4-1.2c-0.7-0.5-1.3-1.2-1.7-2
			c-0.4-0.8-0.6-1.8-0.6-2.9c0-1.3,0.3-2.3,0.9-3.2c0.6-0.9,1.4-1.5,2.3-2.1c1-0.5,2-0.9,3.2-1.1c1.2-0.2,2.3-0.3,3.3-0.3
			c1.2,0,2.4,0.1,3.4,0.4c1.1,0.2,2.1,0.7,3,1.2c0.9,0.6,1.6,1.3,2.2,2.2c0.6,0.9,1,2,1.1,3.3h-5.4c-0.2-1.2-0.8-2.1-1.7-2.5
			c-0.9-0.4-1.9-0.6-3-0.6c-0.4,0-0.8,0-1.3,0.1c-0.5,0.1-1,0.2-1.4,0.3c-0.4,0.2-0.8,0.4-1.1,0.7c-0.3,0.3-0.5,0.7-0.5,1.2
			c0,0.6,0.2,1.1,0.7,1.5c0.4,0.4,1,0.7,1.7,1c0.7,0.2,1.5,0.5,2.4,0.7c0.9,0.2,1.8,0.4,2.8,0.6c0.9,0.2,1.8,0.5,2.7,0.8
			c0.9,0.3,1.7,0.7,2.4,1.2c0.7,0.5,1.3,1.2,1.7,1.9s0.7,1.7,0.7,2.9c0,1.4-0.3,2.5-1,3.5c-0.6,1-1.5,1.7-2.4,2.3
			c-1,0.6-2.1,1-3.4,1.3c-1.2,0.3-2.4,0.4-3.7,0.4c-1.5,0-2.8-0.2-4.1-0.5c-1.2-0.3-2.3-0.8-3.2-1.5c-0.9-0.7-1.6-1.5-2.2-2.5
			c-0.5-1-0.8-2.2-0.8-3.6L138.4,47L138.4,47z M155.3,31.2h3.9v-7h5.1v7h4.6v3.8h-4.6v12.4c0,0.5,0,1,0.1,1.4c0,0.4,0.2,0.7,0.3,1
			c0.2,0.3,0.4,0.5,0.7,0.6c0.3,0.1,0.8,0.2,1.4,0.2c0.4,0,0.7,0,1.1,0c0.4,0,0.7-0.1,1.1-0.2v4c-0.6,0.1-1.1,0.1-1.7,0.2
			c-0.5,0.1-1.1,0.1-1.7,0.1c-1.4,0-2.4-0.1-3.3-0.4c-0.8-0.2-1.5-0.6-1.9-1.1c-0.5-0.5-0.8-1.1-1-1.9c-0.2-0.7-0.3-1.6-0.3-2.6
			V35.1h-3.9L155.3,31.2L155.3,31.2z M172.6,31.2h4.9v3.2h0.1c0.7-1.4,1.7-2.3,3-2.9c1.3-0.6,2.7-0.9,4.2-0.9c1.8,0,3.4,0.3,4.8,1
			c1.4,0.6,2.5,1.5,3.4,2.7c0.9,1.1,1.6,2.5,2,3.9c0.5,1.5,0.7,3.1,0.7,4.8c0,1.6-0.2,3.1-0.6,4.5c-0.4,1.5-1,2.8-1.8,3.9
			c-0.8,1.1-1.9,2-3.1,2.7c-1.3,0.7-2.7,1-4.5,1c-0.7,0-1.5-0.1-2.2-0.2c-0.7-0.1-1.5-0.4-2.2-0.7c-0.7-0.3-1.3-0.7-1.9-1.2
			c-0.6-0.5-1.1-1-1.5-1.6h-0.1v11.6h-5.1V31.2z M190.5,42.9c0-1-0.1-2.1-0.4-3.1c-0.3-1-0.7-1.9-1.2-2.6c-0.5-0.8-1.2-1.4-2-1.8
			c-0.8-0.5-1.7-0.7-2.8-0.7c-2.2,0-3.8,0.7-4.9,2.2c-1.1,1.5-1.6,3.5-1.6,6c0,1.2,0.1,2.3,0.4,3.3c0.3,1,0.7,1.9,1.3,2.6
			c0.6,0.7,1.2,1.3,2,1.7c0.8,0.4,1.7,0.6,2.8,0.6c1.2,0,2.2-0.2,3-0.7s1.5-1.1,2-1.9c0.5-0.8,0.9-1.6,1.1-2.6
			C190.4,44.9,190.5,43.9,190.5,42.9z M199.5,22.4h5.1v4.9h-5.1V22.4z M199.5,31.2h5.1v23.3h-5.1V31.2z M209.2,22.4h5.1v32.1h-5.1
			V22.4z M230.1,55.1c-1.9,0-3.5-0.3-5-0.9c-1.5-0.6-2.7-1.5-3.7-2.5c-1-1.1-1.8-2.4-2.3-3.9c-0.5-1.5-0.8-3.2-0.8-4.9
			c0-1.8,0.3-3.4,0.8-4.9c0.5-1.5,1.3-2.8,2.3-3.9c1-1.1,2.2-1.9,3.7-2.5c1.5-0.6,3.1-0.9,5-0.9c1.9,0,3.5,0.3,5,0.9
			c1.5,0.6,2.7,1.5,3.7,2.5c1,1.1,1.8,2.4,2.3,3.9c0.5,1.5,0.8,3.1,0.8,4.9c0,1.8-0.3,3.4-0.8,4.9c-0.5,1.5-1.3,2.8-2.3,3.9
			c-1,1.1-2.2,1.9-3.7,2.5C233.6,54.8,232,55.1,230.1,55.1z M230.1,51.1c1.1,0,2.1-0.2,3-0.7c0.8-0.5,1.5-1.1,2.1-1.9
			c0.5-0.8,0.9-1.7,1.2-2.6c0.2-1,0.4-2,0.4-3c0-1-0.1-2-0.4-3c-0.2-1-0.7-1.9-1.2-2.6c-0.5-0.8-1.2-1.4-2.1-1.9
			c-0.8-0.5-1.8-0.7-3-0.7c-1.1,0-2.1,0.2-3,0.7c-0.8,0.5-1.5,1.1-2.1,1.9c-0.5,0.8-0.9,1.6-1.2,2.6c-0.2,1-0.4,2-0.4,3
			c0,1,0.1,2,0.4,3c0.2,1,0.7,1.9,1.2,2.6c0.5,0.8,1.2,1.4,2.1,1.9C228,50.9,229,51.1,230.1,51.1z M243.3,31.2h3.9v-7h5.1v7h4.6v3.8
			h-4.6v12.4c0,0.5,0,1,0.1,1.4c0,0.4,0.2,0.7,0.3,1c0.2,0.3,0.4,0.5,0.7,0.6c0.3,0.1,0.8,0.2,1.4,0.2c0.4,0,0.7,0,1.1,0
			c0.4,0,0.7-0.1,1.1-0.2v4c-0.6,0.1-1.1,0.1-1.7,0.2c-0.5,0.1-1.1,0.1-1.7,0.1c-1.4,0-2.4-0.1-3.3-0.4c-0.8-0.2-1.5-0.6-1.9-1.1
			c-0.5-0.5-0.8-1.1-1-1.9c-0.2-0.7-0.3-1.6-0.3-2.6V35.1h-3.9L243.3,31.2L243.3,31.2z"/>
		<path class="st1" d="M61.5,22.4H38L30.8,0l-7.3,22.4L0,22.3l19,13.8l-7.3,22.3l19-13.8l19,13.8l-7.3-22.3L61.5,22.4z"/>
		<path class="st2" d="M44.2,41.2l-1.6-5.1l-11.8,8.5L44.2,41.2z"/>
	</g>
</g>
</svg>
