<?xml version="1.0" encoding="utf-8"?>
<!-- Generator: Adobe Illustrator 26.0.1, SVG Export Plug-In . SVG Version: 6.00 Build 0)  -->
<svg version="1.1" id="Layer_1" xmlns="http://www.w3.org/2000/svg" xmlns:xlink="http://www.w3.org/1999/xlink" x="0px" y="0px"
	 viewBox="0 0 52 52" style="enable-background:new 0 0 52 52;" xml:space="preserve">
<style type="text/css">
	.st0{fill-rule:evenodd;clip-rule:evenodd;fill:#FFFFFF;}
</style>
<g>
	<path class="st0" d="M36.8,11.6h-1.4v-0.3c0.4,0,0.6-0.1,0.5-0.4c-0.3-0.5,0.9-0.5,1.1-0.4C37.2,10.7,37,11.3,36.8,11.6L36.8,11.6z
		 M34.9,11.9h1.8c-0.2,0.3-0.7,1.3-1.1,1.3C35.4,13,34.9,12.4,34.9,11.9L34.9,11.9z M40.5,9.8c-0.1,0-0.2,0.1-0.3,0.1
		c-0.6,0.8-0.2,0.7-1.2,1.3c0,1.3,0,1.4,0.3,2.6v0.1c0,0,0,0-0.1,0C39,14,38.6,14,38.4,14.1c0,0,0.1,0.8,0,1.3
		c-0.2,0.9-2.2,2.8-2.7,2.9c-0.7,0.1-1.4-0.5-2.6-1c-0.3-0.1-1.4-0.9-2-1.1c-0.5-0.2-1,1-0.4,1.3c0.3,0.1,0.7,0.3,0.9,0.7
		c0.4,1.1-0.1,5.2-0.9,6c-0.4,0-0.7-0.4-1-0.3c-0.5,0.3-0.2,1.9,0,2.2c3.3,3.4,2.9,5.9,4.3,7.8c0.6,0,0.2,0.7,0.7,1.5
		c0.1,0.4,0,1.1-0.1,1.4c0,0.3,0,0.7,0,1c0,0.1-0.1,0.2-0.1,0.3c0,0.3,0,0.6,0,0.9c-0.1,0.4-0.2,1-0.3,1.4c-0.2,0.9,0.6,1.5,0.1,2.3
		c0,0.5,0,0.4-0.3,0.8c0,0.8-0.2,2.4,0,3c0.1,0.4,1.6,2.1,2,2.3c0.9,0.4,2.2,0.3,1.8,1.7c-2.6,0.8-4.2-0.4-5.6-0.5l-0.1,0.2
		c-0.9,0-1.6-0.2-1.8-0.3c0-0.2,0.3-2.1,0.4-2.4c0.1-0.2,0.2-0.3,0.3-0.5c0.1-0.3-0.1-2.6-0.1-3.2c-0.6-0.4-0.7-1.6-0.7-2.3
		C30,41,30,40.4,30,39.7c0-0.3-0.2-0.8-0.1-1.2c0.1-0.3,0.4-0.4,0.5-0.6c0-0.3,0-0.5,0-0.8c0.1-0.8,0.1-1.2-0.4-1.7
		c-1.2,0-1.4,0.1-2-1c-0.2-0.3-1.9-3-2.1-3.1c-1.4-0.6-1.1-0.4-1.7-1.5c0,0-0.4,0.1-0.7,0.6c-0.5,0.8-1.4,3.2-1.6,4.1
		c-0.1,0.5,0,1-0.2,1.4c-0.2,0.3-0.7,0.4-0.8,0.6c-0.5,0.9-0.1,0.8-1.1,1.4c-0.2,0.2-0.2,0.5-0.3,0.8c-0.1,0.1-0.1,0.2-0.2,0.3
		c-0.2,0.3,0.2,1,0.1,1.2c-0.2,0.6-0.4,1.1-0.6,1.6c-0.4,1-0.4,2.4-0.8,3c-0.2,0.3-0.7,0-1.1,0.3c0,0.2-0.7,1.7-0.8,2.1
		c0,0.8,0,1.5,0,2.3c0.1,0.4,0.4,0.8,0.4,1.3c-0.1,0.5-1.9,0.5-2.9,0.4c-0.7-0.1-0.9-0.6-0.9-1.2c0-0.7,1.4-5,1.3-5.3
		c-1-1.2,0.3-2.3,0.7-3.4c0.2-0.5,0.1-1.3,0.3-1.7c0.4-0.7,0.7-1.3,1.1-2c0.7-0.6,0.4-0.7,0.7-1.2s0.7-0.8,0.5-1.6
		c-0.4-1.5,0.5-3.6,0.6-5.2c-0.2-0.2-0.7-0.1-0.8-0.6c-0.1-1,0.4-2.7,0.7-2.8c0.1-0.1,0.3,0,0.4-0.1c0-0.7-0.7-4.8-0.2-5
		c0.3-0.1,1.1-0.2,1.3-0.3c0-0.2-0.1-0.5-0.3-0.6c-0.2,0-0.7-0.1-1.1-0.2c-1.2-0.3-0.1-5-0.1-5.1c0.3-0.4,1.9,0.2,2.1-0.6
		c0.5-0.7-0.4-3.2,1.4-6.3c0.6-1.1,1.7-2.1,3.1-1.7c0.4,0.2,0.2,0.8,1,0.1c0-0.4-0.2-0.7-0.3-1.1c-1.3-3.9,3.1-6,6.2-3.8
		c-0.1,0.8,0.1,0.8,0.4,1c0.2,0.9,1,2.4,0.2,3.5c-0.4,0.1-0.8,0.3-1.1,0.5c0,0.4,0,0.7,0.1,0.9c0.1,0.2,0.2,0.3-0.1,0.4
		c0,0,0,0.1,0,0.2c0.7,0.1,1.5-0.1,2-0.3h0.6V6.9h0.1h0.1V6.3h0.3v1h0.7v0.3h10.6v0.6h0.5v-2h0.4v1.6H47v0.9h2.8V8.4h0.5v0.1h1.3
		v0.8h-1.3v0.1h-0.5V9.2H47v0.3c-0.4,0-0.8,0-1.2,0V9.3h-0.5v0.6h-4.8V9.8z"/>
</g>
</svg>
