<svg width="466" height="198" viewBox="0 0 466 198" fill="none" xmlns="http://www.w3.org/2000/svg">
<path d="M61.4156 88.336L47.5043 81.7642H152.958C157.279 81.7642 161.183 79.1887 162.88 75.2194L171.767 54.4227L69.3473 54.4111C52.1118 54.4111 36.5307 64.6511 29.7122 80.4629L1.74663 146.085C-4.31034 160.302 6.1299 176.083 21.5989 176.083H112.65C116.972 176.083 120.876 173.507 122.573 169.538L131.625 148.359H35.7924L61.4156 88.3399V88.336Z" fill="#dce0df"/>
<path d="M355.15 54.415C337.826 54.415 322.183 64.7631 315.423 80.6985L310.908 91.344L307.684 98.9313C301.643 113.145 312.087 128.906 327.544 128.906H335.476H400.22L391.906 148.363H293.738C289.424 148.363 285.528 150.927 283.827 154.885L274.705 176.087H385.559C402.845 176.087 418.46 165.785 425.244 149.904L433.369 130.887C439.445 116.67 429.001 100.874 413.528 100.874H340.922L346.252 88.3477L332.685 81.7719H447.222C451.551 81.7719 455.459 79.1888 457.152 75.2117L466 54.4188H355.154L355.15 54.415Z" fill="#dce0df"/>
<path d="M322.953 26.6872C322.856 26.6872 322.775 26.6061 322.775 26.5096C322.783 25.8377 322.802 23.4592 322.806 23.0113C322.806 22.3935 322.373 21.8954 321.832 21.8954C321.519 21.8954 321.24 22.0653 321.059 22.3279C320.966 22.4592 319.857 24.077 319.173 25.0694C319.134 25.1234 319.076 25.1543 319.01 25.1543H264.965C264.753 25.1543 264.579 24.9844 264.575 24.772L264.467 23.3125C264.463 23.0654 264.687 22.8723 264.93 22.9186L267.694 23.1812C267.934 23.2005 268.15 23.0461 268.208 22.8144L270.222 14.6556C270.265 14.4664 270.16 14.2733 269.979 14.2077L268.108 13.5088C268 13.4663 267.918 13.3775 267.891 13.2655C267.551 11.8446 264.784 2.34589 251.444 0.222206C244.954 -0.808748 240.703 1.95977 238.434 4.1684C237.425 5.14916 236.594 6.29595 235.944 7.547L235.148 9.30001C235.079 9.43515 234.769 11.08 234.769 11.2306L235.191 19.3277C235.191 19.6057 235.322 19.8644 235.539 20.0343L238.465 21.2969L236.849 23.9728C236.795 24.1697 236.617 24.3048 236.412 24.3048C236.412 24.3048 232.972 24.3936 231.275 24.4631C228.094 24.5906 221.009 28.4711 215.787 39.6301C210.657 50.5884 209.815 52.4147 209.815 52.4147C209.707 52.6232 209.486 52.7545 209.25 52.7429L204.485 52.7584C204.191 52.7584 203.878 52.9939 203.754 53.2603L196.344 74.2385C196.221 74.505 196.294 74.9065 196.487 75.1305L201.659 78.3623C201.802 78.482 201.864 78.6712 201.821 78.8489L199.12 86.8223C199.085 87 199.019 87.1737 198.926 87.332L195.343 90.4867C195.25 90.5678 195.165 90.6682 195.115 90.7801C195.088 90.8419 195.065 90.9075 195.045 90.9732L190.113 103.603C190.048 103.827 189.843 103.978 189.611 103.978L186.843 103.993C186.147 103.993 185.568 104.53 185.506 105.221L183.851 124.099C183.821 124.431 183.778 124.763 183.72 125.095L182.414 132.586C182.363 132.76 182.267 132.914 182.139 133.042L177.532 136.559C175.421 138.575 172.592 142.254 171.208 144.822L155.863 177.191C155.492 177.878 155.194 179.064 155.213 179.848L156.303 181.79C156.319 182.485 156.04 185.551 155.72 186.168L150.579 195.15C150.463 195.37 150.455 195.629 150.556 195.856L150.811 196.439L151.58 197.972L167.184 197.996C168.151 198.084 169.221 196.845 169.252 195.517L170.099 184.821L169.878 183.211L199.63 148.297C200.407 147.351 201.462 145.683 201.991 144.579L216.169 113.318C216.336 112.975 216.633 112.712 216.997 112.592L217.893 112.303C218.438 112.125 219.034 112.299 219.401 112.739C220.642 114.23 223.56 119.183 224.982 121.249C226.157 122.964 231.99 131.4 234.537 134.181C235.241 134.945 237.409 135.814 238.38 136.405C238.697 136.598 238.801 137.007 238.619 137.328L230.123 152.247L226.37 169.866C226.239 170.276 226.138 170.7 226.076 171.125L222.679 183.361C222.702 184.906 221.515 185.717 221.419 187.539L220.182 196.482C220.166 196.756 220.386 196.988 220.661 196.988L241.653 197.104H241.669C241.696 197.104 243.149 197.084 244.007 197.049C244.17 197.042 244.448 197.015 244.63 196.992C247.428 196.636 249.342 196.254 250.644 195.814C250.702 195.795 250.76 195.775 250.818 195.752C251.723 195.432 252.31 195.076 252.689 194.683C253.404 193.937 254.231 193.022 254.355 191.845C254.359 191.798 254.363 191.756 254.367 191.709C254.367 191.682 254.367 191.651 254.37 191.624C254.37 191.559 254.37 191.497 254.37 191.431C254.37 191.424 254.37 191.412 254.37 191.404C254.37 191.346 254.363 191.288 254.355 191.234C254.328 190.999 254.274 190.821 254.212 190.678C254.212 190.678 254.212 190.678 254.212 190.675C254.212 190.671 254.208 190.667 254.204 190.663C254.185 190.617 254.162 190.578 254.138 190.539C254.123 190.516 254.111 190.493 254.092 190.47C253.972 190.304 253.856 190.242 253.841 190.234C253.783 190.2 253.721 190.169 253.655 190.146L243.907 187.207C243.281 187.014 242.736 186.628 242.349 186.103L239.732 182.234C239.605 181.964 239.663 181.639 239.875 181.431L244.974 176.407C245.148 176.241 245.283 176.037 245.372 175.813L261.077 138.787C261.811 136.436 261.568 133.791 261.077 130.995C260.713 128.929 255.422 120.052 254.038 117.6C252.82 115.438 245.229 102.167 243.428 99.0239C243.223 98.6687 242.956 98.352 242.62 98.1204C242.38 97.9543 242.144 97.742 241.951 97.518C241.758 97.2941 241.619 97.0315 241.541 96.7458L240.942 87.529C240.888 87.3282 241.027 87.1274 241.236 87.1119L243.969 86.8841C244.228 86.861 244.46 86.7104 244.58 86.4826L254.042 68.7092C254.173 68.466 254.166 68.1686 254.023 67.9331L252.086 65.5353C251.955 65.3152 251.951 65.0372 252.078 64.8132L254.977 61.6817C255.097 61.4655 255.368 61.3921 255.584 61.5118L263.292 65.8557C263.759 66.1183 264.289 66.2728 264.826 66.2728C266.964 66.2573 270.485 64.9947 272.317 63.8749C272.8 63.5776 273.198 63.1567 273.461 62.6548L277.242 53.8241C277.292 53.7121 277.458 53.7276 277.481 53.8473L278.536 58.7588C278.606 59.0677 278.877 59.2414 279.186 59.1719L290.318 56.6969C290.612 56.6312 290.793 56.3416 290.731 56.0482L288.107 44.9625C288.072 44.8119 288.099 44.6536 288.184 44.5223L289.267 42.8427C289.402 42.6342 289.502 42.4064 289.564 42.1708L290.875 36.1898C290.909 36.0353 291.045 35.9233 291.203 35.9233L321.998 35.9619C322.431 35.9619 322.767 35.6299 322.767 35.1936V29.9654C322.767 29.8689 322.848 29.7878 322.945 29.7878H334.819C335.028 29.7878 335.202 29.6179 335.202 29.4055V27.0502C335.202 26.8417 335.032 26.6679 334.819 26.6679H322.941L322.953 26.6872Z" fill="#dce0df"/>
</svg>
