<svg width="560" height="300" xmlns="http://www.w3.org/2000/svg" xml:space="preserve" enable-background="new 0 0 560 300" version="1.0">

 <g>
  <title>Layer 1</title>
  <g stroke="null" id="svg_1">
   <path stroke="null" id="svg_2" fill="#fff" d="m536.995,139.15183l-55.23543,0c-9.98911,0 -18.15502,8.14023 -18.15502,18.12934l0,47.58311c0,9.98911 8.14023,18.15502 18.15502,18.15502l55.23543,0c9.98911,0 18.15502,-8.14023 18.15502,-18.15502l0,-47.58311c-0.02568,-9.98911 -8.16591,-18.12934 -18.15502,-18.12934l0,0zm-202.94079,-62.57962l-6.77924,0l0,-1.18123c1.84888,0.02568 3.03012,-0.35951 2.20839,-2.00296c-1.25827,-2.46518 4.18567,-2.33678 4.98172,-1.79753c1.41234,0.95012 0.46222,3.67209 -0.41086,4.98172l0,0zm-9.29578,1.66913l8.24294,0c-0.92444,1.38666 -3.49234,6.06023 -5.13579,6.06023c-0.69333,-0.95012 -2.87604,-3.95456 -3.10715,-6.06023l0,0zm157.2836,79.03983l54.64482,0l0,47.58311l-54.64482,0l0,-47.58311l0,0zm-112.16568,0l76.06107,0l0,0c0,-9.98911 -8.14023,-18.12934 -18.15502,-18.12934l-58.39395,0c-9.98911,0 -18.15502,8.14023 -18.15502,18.12934l0,47.58311c0,9.98911 8.14023,18.15502 18.15502,18.15502l58.39395,0c9.98911,0 18.15502,-8.14023 18.15502,-18.15502l0,-31.37968l-61.73221,0l0,0c0,7.72937 6.29134,14.02071 14.02071,14.02071l30.40388,0l0,17.38465l-58.75345,0l0,-47.60878l0,0zm-237.47898,0l72.59441,0l0,0c0,-9.98911 -8.14023,-18.12934 -18.15502,-18.12934l-56.18556,0c-9.98911,0 -18.15502,8.14023 -18.15502,18.12934l0,14.71404c0,9.98911 8.14023,18.12934 18.15502,18.12934l56.33963,0l0,14.71404l-74.46897,0l0,0c0,9.98911 8.14023,18.15502 18.15502,18.15502l58.06012,0c9.98911,0 18.12934,-8.14023 18.12934,-18.15502l0,-14.71404c0,-9.98911 -8.14023,-18.12934 -18.12934,-18.12934l-56.33963,0l0,-14.71404l0,0zm-104.53903,0l68.53713,0l0,0c0,-9.98911 -8.14023,-18.12934 -18.15502,-18.12934l-55.23543,0c-9.98911,0 -18.15502,8.14023 -18.15502,18.12934l0,47.58311c0,9.98911 8.14023,18.15502 18.15502,18.15502l55.23543,0c9.98911,0 18.15502,-8.14023 18.15502,-18.15502l0,0l-68.53713,0l0,-47.58311l0,0zm323.65756,-88.9519c-0.35951,0.17975 -0.77037,0.35951 -1.36098,0.46222c-2.59357,3.67209 -1.02716,3.23555 -5.59801,6.29134c0,6.13727 0.17975,6.80492 1.61777,12.24886c0.02568,0.12839 0.02568,0.25679 -0.05136,0.35951c-0.07704,0.10272 -0.17975,0.17975 -0.30815,0.20543c-1.1042,0.23111 -2.69629,0.64197 -3.62073,0.82173c0.02568,0.20543 0.46222,3.67209 -0.02568,6.26567c-0.77037,4.05728 -10.45134,12.96787 -12.76244,13.43009c-3.20987,0.64197 -6.77924,-2.18271 -12.35158,-4.64789c-1.54074,-0.66765 -6.70221,-4.08295 -9.42418,-4.98172c-2.23407,-0.74469 -4.49382,4.72493 -1.69481,6.18863c1.30963,0.69333 3.36394,1.5921 4.0316,3.28691c1.92592,5.03308 -0.30815,24.39501 -4.28839,28.29821c-1.90024,-0.02568 -3.49234,-1.74617 -4.90468,-1.30963c-2.51654,1.38666 -0.92444,9.06467 0,10.39998c15.45873,15.92095 13.63553,27.68191 20.18366,36.4898c3.00444,0 1.02716,3.18419 3.28691,6.90764c0.61629,1.92592 -0.17975,5.16147 -0.4879,6.39406c0,1.5921 0,3.20987 0,4.80196c-0.15407,0.4879 -0.33383,1.00148 -0.4879,1.48938c0,1.41234 0,2.79901 0,4.21135c-0.46222,2.05432 -0.9758,4.77629 -1.38666,6.70221c-0.92444,4.0316 2.61925,7.16443 0.4879,10.99059c0,2.36246 0,1.90024 -1.38666,3.80049c0,3.67209 -0.87308,11.37578 0,14.09775c0.59062,1.90024 7.47258,9.93776 9.19307,10.70812c4.15999,1.84888 10.27158,1.4637 8.2943,7.98616c-12.17183,3.72345 -19.92687,-2.10567 -26.42365,-2.20839l-0.30815,1.1042c-4.15999,0 -7.47258,-1.02716 -8.37134,-1.30963c0,-1.12987 1.33531,-9.73232 1.79753,-11.09331c0.46222,-0.74469 0.92444,-1.4637 1.41234,-2.20839c0.51358,-1.4637 -0.51358,-12.1975 -0.59062,-15.09923c-2.59357,-1.90024 -3.10715,-7.70369 -3.10715,-10.88788c-0.74469,-2.46518 -0.74469,-5.39258 -0.89876,-8.60245c-0.07704,-1.51506 -0.9758,-3.72345 -0.41086,-5.59801c0.38518,-1.28395 1.84888,-1.84888 2.20839,-2.90172c0,-1.20691 0,-2.38814 0,-3.59505c0.69333,-3.77481 0.46222,-5.52098 -1.79753,-7.8064c-5.70073,0.07704 -6.4711,0.35951 -9.60393,-4.49382c-0.9758,-1.51506 -8.93628,-14.07207 -9.70665,-14.40589c-6.62517,-2.90172 -5.31554,-1.77185 -8.19159,-6.90764c-0.12839,0 -1.87456,0.59062 -3.44098,2.9274c-2.36246,3.5437 -6.57381,15.04787 -7.75504,19.07946c-0.66765,2.25975 0,4.72493 -1.00148,6.59949c-0.71901,1.33531 -3.08147,1.77185 -3.59505,2.69629c-2.31111,4.18567 -0.59062,3.85184 -5.0074,6.80492c-0.79605,1.02716 -0.82173,2.5679 -1.41234,3.80049c-0.33383,0.46222 -0.66765,0.92444 -1.00148,1.41234c-0.74469,1.5921 0.79605,4.49382 0.4879,5.4953c-0.77037,2.61925 -1.77185,5.26419 -2.79901,7.70369c-2.02864,4.80196 -1.77185,11.19602 -3.80049,14.1491c-1.02716,1.48938 -3.51802,0.02568 -5.39258,1.25827c-0.10272,1.02716 -3.10715,7.88344 -3.69777,9.80936c0,3.62073 0,7.26714 0,10.88788c0.56494,1.84888 2.10567,3.59505 1.64345,5.90616c-0.4879,2.46518 -9.09035,2.4395 -13.76392,1.77185c-3.13283,-0.46222 -4.05728,-2.74765 -4.00592,-5.41826c0.05136,-3.15851 6.41974,-23.59896 6.03455,-24.95995c-4.82764,-5.44394 1.28395,-11.04195 3.10715,-16.10071c0.87308,-2.46518 0.33383,-5.90616 1.30963,-8.19159c1.69481,-3.10715 3.38962,-6.18863 5.11011,-9.29578c3.10715,-2.9274 1.72049,-3.08147 3.38962,-5.70073c1.4637,-2.28543 3.23555,-3.80049 2.20839,-7.29282c-2.05432,-7.01035 2.41382,-16.94811 2.69629,-24.29229c-0.79605,-0.82173 -3.46666,-0.56494 -3.80049,-2.79901c-0.69333,-4.54518 1.72049,-12.60837 3.20987,-13.37874c0.66765,-0.33383 1.41234,-0.02568 2.00296,-0.41086c0,-3.4153 -3.38962,-22.44341 -0.82173,-23.39353c1.5921,-0.59062 5.23851,-0.89876 5.95752,-1.23259c-0.05136,-0.82173 -0.59062,-2.54222 -1.25827,-2.64493c-1.12987,-0.15407 -3.46666,-0.59062 -5.31554,-1.02716c-5.67505,-1.30963 -0.41086,-23.72736 -0.35951,-23.80439c1.56642,-2.05432 8.80788,0.71901 9.70665,-2.79901c2.41382,-3.08147 -1.87456,-14.99651 6.39406,-29.65919c2.79901,-4.95604 8.14023,-9.93776 14.38022,-7.83208c2.08,0.71901 0.82173,3.72345 4.49382,0.4879c0.10272,-1.87456 -0.77037,-3.44098 -1.30963,-5.0074c-6.11159,-18.23206 14.58565,-28.11846 29.09426,-17.6928c1.64345,0.66765 2.5679,0.9758 3.80049,1.90024c0.79605,4.13431 4.879,11.47849 0.79605,16.30614c-1.66913,0.35951 -3.72345,1.28395 -5.0074,2.20839c-0.02568,1.66913 0.20543,3.20987 0.4879,4.21135c0.28247,0.89876 0.79605,1.25827 -0.53926,1.79753c-0.17975,0.07704 -0.10272,0.61629 0,0.84741c3.38962,0.66765 6.98468,-0.61629 9.24442,-1.54074l2.69629,0l0,-3.4153l0.69333,0l0.59062,0l0,-2.67061l1.28395,0l0,4.59653l3.36394,0l0,1.4637l49.97125,0l0,2.59357l2.20839,0l0,-9.50121l1.84888,0l0,7.72937l4.26271,0l0,4.41678l13.22466,0l0,-1.30963l2.20839,0l0,0.56494l6.23999,0l0,3.67209l-6.23999,0l0,0.56494l-2.20839,0l0,-1.30963l-13.22466,0l0,1.30963c-1.9516,0 -3.87752,0 -5.82912,0l0,-0.89876l-2.49086,0l0,2.67061l-22.03254,0l0,0.05136z" clip-rule="evenodd" fill-rule="evenodd" class="st0"/>
  </g>
 </g>
</svg>